HIERARCHY
ROOT Hips
{
	OFFSET 0.000000 100.481300 0.000000
	CHANNELS 6 Xposition Yposition Zposition Xrotation Yrotation Zrotation 
	JOINT Spine
	{
		OFFSET -0.279200 12.230698 -2.892100
		CHANNELS 3 Xrotation Yrotation Zrotation
		JOINT Spine1
		{
			OFFSET -0.232667 10.192268 -1.242267
			CHANNELS 3 Xrotation Yrotation Zrotation
			JOINT Spine1_split
			{
				OFFSET -0.232667 10.192268 -1.242267
				CHANNELS 3 Xrotation Yrotation Zrotation
				JOINT Spine2
				{
					OFFSET -0.232667 10.192268 -1.242267
					CHANNELS 3 Xrotation Yrotation Zrotation
					JOINT Neck
					{
						OFFSET -0.418800 17.814194 8.416900
						CHANNELS 3 Xrotation Yrotation Zrotation
						JOINT Head
						{
							OFFSET 0.000000 7.031097 3.806800
							CHANNELS 3 Xrotation Yrotation Zrotation
							JOINT HeadTop_End
							{
								OFFSET 0.000000 24.646606 12.978600
								CHANNELS 3 Xrotation Yrotation Zrotation
								End Site
								{
									OFFSET 0.000000 0.000000 0.000000
								}
							}
						}
					}
					JOINT LeftShoulder
					{
						OFFSET 8.476499 7.247704 -3.868750
						CHANNELS 3 Xrotation Yrotation Zrotation
						JOINT LeftShoulder_split
						{
							OFFSET 8.476499 7.247704 -3.868750
							CHANNELS 3 Xrotation Yrotation Zrotation
							JOINT LeftArm
							{
								OFFSET 9.308998 -2.777710 0.208600
								CHANNELS 3 Xrotation Yrotation Zrotation
								JOINT LeftForeArm
								{
									OFFSET 29.972298 0.000000 0.000000
									CHANNELS 3 Xrotation Yrotation Zrotation
									JOINT LeftHand
									{
										OFFSET 26.026505 0.000000 0.000000
										CHANNELS 3 Xrotation Yrotation Zrotation
										JOINT LeftHandThumb1
										{
											OFFSET 12.240501 -7.147949 9.207150
											CHANNELS 3 Xrotation Yrotation Zrotation
											JOINT LeftHandThumb2
											{
												OFFSET 4.138618 -2.389435 2.389433
												CHANNELS 3 Xrotation Yrotation Zrotation
												JOINT LeftHandThumb3
												{
													OFFSET 2.726913 -1.574387 1.574386
													CHANNELS 3 Xrotation Yrotation Zrotation
													JOINT LeftHandThumb4
													{
														OFFSET 3.941010 -2.275345 2.275342
														CHANNELS 3 Xrotation Yrotation Zrotation
														End Site
														{
															OFFSET 0.000000 0.000000 0.000000
														}
													}
												}
											}
										}
										JOINT LeftHandIndex1
										{
											OFFSET 24.424698 -1.985611 5.953459
											CHANNELS 3 Xrotation Yrotation Zrotation
											JOINT LeftHandIndex2
											{
												OFFSET 6.426697 0.000000 0.000000
												CHANNELS 3 Xrotation Yrotation Zrotation
												JOINT LeftHandIndex3
												{
													OFFSET 5.337898 0.000000 0.000000
													CHANNELS 3 Xrotation Yrotation Zrotation
													JOINT LeftHandIndex4
													{
														OFFSET 4.409401 0.000000 0.000000
														CHANNELS 3 Xrotation Yrotation Zrotation
														End Site
														{
															OFFSET 0.000000 0.000000 0.000000
														}
													}
												}
											}
										}
										JOINT LeftHandMiddle1
										{
											OFFSET 23.810104 0.000000 0.000000
											CHANNELS 3 Xrotation Yrotation Zrotation
											JOINT LeftHandMiddle2
											{
												OFFSET 7.176498 0.000000 0.000000
												CHANNELS 3 Xrotation Yrotation Zrotation
												JOINT LeftHandMiddle3
												{
													OFFSET 6.774902 0.000000 0.000000
													CHANNELS 3 Xrotation Yrotation Zrotation
													JOINT LeftHandMiddle4
													{
														OFFSET 5.403328 0.000000 0.000000
														CHANNELS 3 Xrotation Yrotation Zrotation
														End Site
														{
															OFFSET 0.000000 0.000000 0.000000
														}
													}
												}
											}
										}
										JOINT LeftHandRing1
										{
											OFFSET 22.908401 -0.839279 -6.020567
											CHANNELS 3 Xrotation Yrotation Zrotation
											JOINT LeftHandRing2
											{
												OFFSET 6.337502 0.000000 0.000000
												CHANNELS 3 Xrotation Yrotation Zrotation
												JOINT LeftHandRing3
												{
													OFFSET 5.779297 0.000000 0.000000
													CHANNELS 3 Xrotation Yrotation Zrotation
													JOINT LeftHandRing4
													{
														OFFSET 4.965698 0.000000 0.000000
														CHANNELS 3 Xrotation Yrotation Zrotation
														End Site
														{
															OFFSET 0.000000 0.000000 0.000000
														}
													}
												}
											}
										}
										JOINT LeftHandPinky1
										{
											OFFSET 20.037003 -1.530319 -10.950146
											CHANNELS 3 Xrotation Yrotation Zrotation
											JOINT LeftHandPinky2
											{
												OFFSET 5.254700 0.000000 0.000000
												CHANNELS 3 Xrotation Yrotation Zrotation
												JOINT LeftHandPinky3
												{
													OFFSET 4.810204 0.000000 0.000000
													CHANNELS 3 Xrotation Yrotation Zrotation
													JOINT LeftHandPinky4
													{
														OFFSET 3.647202 0.000000 0.000000
														CHANNELS 3 Xrotation Yrotation Zrotation
														End Site
														{
															OFFSET 0.000000 0.000000 0.000000
														}
													}
												}
											}
										}
									}
								}
							}
						}
					}
					JOINT RightShoulder
					{
						OFFSET -7.570500 7.247704 -3.868750
						CHANNELS 3 Xrotation Yrotation Zrotation
						JOINT RightShoulder_split
						{
							OFFSET -7.570500 7.247704 -3.868750
							CHANNELS 3 Xrotation Yrotation Zrotation
							JOINT RightArm
							{
								OFFSET -9.308998 -2.777710 0.208500
								CHANNELS 3 Xrotation Yrotation Zrotation
								JOINT RightForeArm
								{
									OFFSET -29.972300 0.000000 0.000000
									CHANNELS 3 Xrotation Yrotation Zrotation
									JOINT RightHand
									{
										OFFSET -26.026505 0.000000 0.000000
										CHANNELS 3 Xrotation Yrotation Zrotation
										JOINT RightHandThumb1
										{
											OFFSET -12.240601 -7.148026 9.207092
											CHANNELS 3 Xrotation Yrotation Zrotation
											JOINT RightHandThumb2
											{
												OFFSET -4.138618 -2.389435 2.389433
												CHANNELS 3 Xrotation Yrotation Zrotation
												JOINT RightHandThumb3
												{
													OFFSET -2.726974 -1.574417 1.574421
													CHANNELS 3 Xrotation Yrotation Zrotation
													JOINT RightHandThumb4
													{
														OFFSET -3.941010 -2.275345 2.275343
														CHANNELS 3 Xrotation Yrotation Zrotation
														End Site
														{
															OFFSET 0.000000 0.000000 0.000000
														}
													}
												}
											}
										}
										JOINT RightHandIndex1
										{
											OFFSET -24.424698 -1.985657 5.953444
											CHANNELS 3 Xrotation Yrotation Zrotation
											JOINT RightHandIndex2
											{
												OFFSET -6.426697 0.000000 0.000000
												CHANNELS 3 Xrotation Yrotation Zrotation
												JOINT RightHandIndex3
												{
													OFFSET -5.337898 0.000000 0.000000
													CHANNELS 3 Xrotation Yrotation Zrotation
													JOINT RightHandIndex4
													{
														OFFSET -4.409401 0.000000 0.000000
														CHANNELS 3 Xrotation Yrotation Zrotation
														End Site
														{
															OFFSET 0.000000 0.000000 0.000000
														}
													}
												}
											}
										}
										JOINT RightHandMiddle1
										{
											OFFSET -23.810097 0.000000 0.000000
											CHANNELS 3 Xrotation Yrotation Zrotation
											JOINT RightHandMiddle2
											{
												OFFSET -7.176498 0.000000 0.000000
												CHANNELS 3 Xrotation Yrotation Zrotation
												JOINT RightHandMiddle3
												{
													OFFSET -6.774902 0.000000 0.000000
													CHANNELS 3 Xrotation Yrotation Zrotation
													JOINT RightHandMiddle4
													{
														OFFSET -5.403328 0.000000 0.000000
														CHANNELS 3 Xrotation Yrotation Zrotation
														End Site
														{
															OFFSET 0.000000 0.000000 0.000000
														}
													}
												}
											}
										}
										JOINT RightHandRing1
										{
											OFFSET -22.908302 -0.839325 -6.020576
											CHANNELS 3 Xrotation Yrotation Zrotation
											JOINT RightHandRing2
											{
												OFFSET -6.337502 0.000000 0.000000
												CHANNELS 3 Xrotation Yrotation Zrotation
												JOINT RightHandRing3
												{
													OFFSET -5.779297 0.000000 0.000000
													CHANNELS 3 Xrotation Yrotation Zrotation
													JOINT RightHandRing4
													{
														OFFSET -4.965698 0.000000 0.000000
														CHANNELS 3 Xrotation Yrotation Zrotation
														End Site
														{
															OFFSET 0.000000 0.000000 0.000000
														}
													}
												}
											}
										}
										JOINT RightHandPinky1
										{
											OFFSET -20.037003 -1.530334 -10.950259
											CHANNELS 3 Xrotation Yrotation Zrotation
											JOINT RightHandPinky2
											{
												OFFSET -5.254700 0.000000 0.000000
												CHANNELS 3 Xrotation Yrotation Zrotation
												JOINT RightHandPinky3
												{
													OFFSET -4.810204 0.000000 0.000000
													CHANNELS 3 Xrotation Yrotation Zrotation
													JOINT RightHandPinky4
													{
														OFFSET -3.647202 0.000000 0.000000
														CHANNELS 3 Xrotation Yrotation Zrotation
														End Site
														{
															OFFSET 0.000000 0.000000 0.000000
														}
													}
												}
											}
										}
									}
								}
							}
						}
					}
				}
			}
		}
	}
	JOINT LeftUpLeg
	{
		OFFSET 15.427100 -6.655098 0.678600
		CHANNELS 3 Xrotation Yrotation Zrotation
		JOINT LeftLeg
		{
			OFFSET 4.081073 -39.591068 13.024000
			CHANNELS 3 Xrotation Yrotation Zrotation
			JOINT LeftFoot
			{
				OFFSET -4.081074 -37.707932 -15.979700
				CHANNELS 3 Xrotation Yrotation Zrotation
				JOINT LeftToeBase
				{
					OFFSET 5.346399 -15.068900 20.645000
					CHANNELS 3 Xrotation Yrotation Zrotation
					JOINT LeftToe_End
					{
						OFFSET 2.754700 0.931300 11.300900
						CHANNELS 3 Xrotation Yrotation Zrotation
						End Site
						{
							OFFSET 0.000000 0.000000 0.000000
						}
					}
				}
			}
		}
	}
	JOINT RightUpLeg
	{
		OFFSET -15.569500 -6.655098 0.678600
		CHANNELS 3 Xrotation Yrotation Zrotation
		JOINT RightLeg
		{
			OFFSET -4.081825 -39.591045 13.023800
			CHANNELS 3 Xrotation Yrotation Zrotation
			JOINT RightFoot
			{
				OFFSET 4.081824 -37.707954 -15.979600
				CHANNELS 3 Xrotation Yrotation Zrotation
				JOINT RightToeBase
				{
					OFFSET -5.346400 -15.068900 20.645000
					CHANNELS 3 Xrotation Yrotation Zrotation
					JOINT RightToe_End
					{
						OFFSET -2.754700 0.931300 11.300900
						CHANNELS 3 Xrotation Yrotation Zrotation
						End Site
						{
							OFFSET 0.000000 0.000000 0.000000
						}
					}
				}
			}
		}
	}
}
MOTION
Frames: 4
Frame Time: 0.016667
0.564112 49.295158 16.302019 0.145629 0.084796 0.843816 10.430289 0.113213 -1.466801 -0.199256 0.213327 -0.355463 0.000000 0.000000 0.000000 -0.199585 0.248526 -0.300880 -1.001766 -1.284342 0.469464 -8.883498 -4.327063 -5.321560 -0.000000 -0.000000 -0.000000 0.823520 -15.262027 -7.868750 0.000000 0.000000 0.000000 4.746716 -21.216436 -54.862228 0.000001 -62.197492 0.000001 31.062966 4.315252 41.770240 6.610616 1.798238 20.801495 2.716384 20.172569 -24.389159 -5.537271 29.849545 5.070891 0.000001 -0.000001 0.000001 -0.235313 2.798401 -26.913105 0.396825 2.121288 -21.189303 0.083140 0.984443 -9.653129 0.000001 -0.000002 -0.000001 1.299145 7.334322 -16.511081 0.329944 1.940072 -19.302239 0.233109 1.637781 -16.201258 -0.000001 -0.000000 -0.000001 1.797280 9.807923 -14.184133 0.205915 1.541087 -15.220195 0.265331 1.744711 -17.292062 -0.000000 -0.000001 -0.000001 2.041305 10.867567 -13.918924 0.168522 1.396444 -13.761324 0.107169 1.116547 -10.963885 -0.000000 -0.000001 -0.000001 3.171093 -4.378723 8.782884 0.000000 0.000000 0.000000 -3.950240 37.253382 63.733636 -0.000024 55.137928 0.000024 43.537323 4.741031 -36.277942 -9.383510 -1.613343 -17.604719 3.557090 -24.337028 34.656844 -6.608468 -37.497315 -11.176177 -0.000002 -0.000001 0.000000 2.957832 1.012875 13.529999 0.472458 -2.045694 26.006729 0.059759 -0.744421 9.177790 0.000002 -0.000003 0.000004 0.105540 -3.664962 2.525401 0.584984 -2.261678 29.000440 0.020470 -0.436588 5.367130 -0.000002 0.000000 -0.000001 0.456443 -7.644272 4.306124 0.107461 -0.995721 12.318848 0.072392 -0.818798 10.104466 0.000002 -0.000000 -0.000004 -11.162315 -10.227888 7.169818 0.029113 -0.520528 6.403065 0.028646 -0.516309 6.351260 0.000002 0.000000 -0.000001 -86.311441 -11.434170 18.501570 79.645497 -0.700427 -3.144361 9.215889 -6.270065 -9.761687 -0.103119 0.000003 -0.000000 -0.000000 -0.000000 -0.000000 -88.057811 12.723462 -14.133418 80.264715 0.661245 1.242764 10.522897 -0.516148 10.738026 -0.191627 -0.000002 -0.000000 0.000000 0.000000 -0.000000 
0.547982 49.327751 16.221729 -0.412945 0.069763 0.937173 10.212672 0.079381 -1.461687 0.247320 0.210143 -0.363243 0.000000 0.000000 0.000000 0.247050 0.242483 -0.311429 -0.863847 -1.257150 0.466748 -9.376976 -4.249639 -5.115970 -0.000000 0.000000 0.000000 0.823222 -15.329303 -7.716560 0.000000 0.000000 0.000000 4.455917 -21.455904 -54.700847 -0.000019 -61.301269 -0.000020 31.122372 4.160795 41.654363 7.239340 2.016983 20.046612 2.611794 19.816549 -24.507487 -5.747156 29.560072 5.256793 0.000000 -0.000000 0.000002 -0.214981 2.733563 -26.352483 0.412480 2.161188 -21.608034 0.074604 0.932894 -9.143222 0.000000 0.000001 -0.000001 1.260136 7.277789 -16.156647 0.350269 1.997087 -19.893279 0.225083 1.609862 -15.917563 0.000001 0.000000 -0.000002 1.754427 9.708194 -14.032347 0.229573 1.625503 -16.076476 0.246845 1.684242 -16.674554 -0.000001 0.000000 -0.000003 1.966964 10.727164 -13.936875 0.189197 1.478278 -14.585674 0.096720 1.061230 -10.414305 -0.000003 0.000001 -0.000004 3.130741 -4.188130 9.128583 0.000000 0.000000 0.000000 -3.788718 37.492428 62.416639 -0.000038 54.701435 0.000043 38.426098 6.434217 -35.338784 -9.061919 -1.287309 -15.921458 3.457739 -24.286997 33.909990 -6.735816 -36.930648 -11.141168 -0.000002 0.000000 0.000001 2.928273 1.054575 13.023777 0.477737 -2.056456 26.153954 0.054185 -0.709091 8.738812 0.000001 0.000002 0.000001 0.100443 -3.662353 2.284181 0.616268 -2.317166 29.783279 0.019160 -0.422514 5.193910 -0.000002 0.000002 0.000002 0.445617 -7.590687 4.231997 0.120847 -1.055144 13.066937 0.071849 -0.815780 10.066637 0.000000 -0.000000 -0.000003 -11.183163 -10.282688 7.459234 0.034678 -0.567835 6.987816 0.028695 -0.516726 6.356507 -0.000001 0.000002 -0.000001 -85.672914 -11.269336 18.521612 79.561301 -0.708857 -3.137139 9.207791 -6.267721 -9.731058 -0.103119 0.000002 -0.000000 0.000000 0.000000 0.000000 -87.532863 12.645857 -14.193286 80.228290 0.736000 1.219776 10.549599 -0.515341 10.596854 -0.191627 -0.000002 -0.000000 0.000000 0.000000 0.000000 
0.534161 49.367172 16.145355 -0.955892 0.064102 1.026137 10.001980 0.050715 -1.453988 0.733886 0.214279 -0.373962 0.000000 0.000000 0.000000 0.733709 0.243699 -0.324692 -0.761074 -1.231934 0.475966 -10.032739 -4.165827 -4.919811 0.000000 0.000000 -0.000000 0.826521 -15.600728 -7.588857 0.000000 0.000000 0.000000 4.308930 -21.403938 -54.419775 0.000040 -61.023772 0.000034 30.015423 3.616502 41.129562 7.896447 2.237064 19.250656 2.502426 19.443486 -24.632770 -5.966423 29.255493 5.449301 0.000001 -0.000002 0.000002 -0.192909 2.666131 -25.764488 0.429202 2.202888 -22.047202 0.066139 0.878792 -8.608457 -0.000000 -0.000001 -0.000000 1.219822 7.218219 -15.785020 0.372180 2.056628 -20.513201 0.216807 1.580544 -15.620057 0.000001 0.000002 -0.000003 1.710058 9.602919 -13.874533 0.255659 1.713402 -16.971919 0.228165 1.620629 -16.026972 -0.000000 0.000000 0.000000 1.888933 10.579960 -13.956022 0.212109 1.563655 -15.448802 0.086335 1.003105 -9.837936 -0.000004 0.000000 -0.000004 3.082112 -3.976041 9.440668 0.000000 0.000000 0.000000 -3.601773 37.650762 61.027406 -0.000037 54.399021 0.000052 33.444271 7.545269 -34.227283 -8.709539 -0.935007 -14.170920 3.357943 -24.234203 33.129153 -6.869813 -36.336610 -11.102373 -0.000005 0.000001 -0.000001 2.897930 1.099063 12.492940 0.483291 -2.067723 26.308372 0.048637 -0.672009 8.278408 -0.000000 0.000001 0.000001 0.095049 -3.659474 2.031253 0.649808 -2.374755 30.602673 0.017855 -0.407778 5.012208 -0.000002 -0.000002 0.000002 0.434435 -7.534141 4.154907 0.135684 -1.117129 13.849628 0.071280 -0.812589 10.026951 0.000004 0.000000 -0.000001 -11.204847 -10.340617 7.762711 0.041012 -0.617367 7.601116 0.028733 -0.517176 6.362018 0.000001 0.000000 -0.000001 -85.051332 -11.098129 18.527984 79.468828 -0.716412 -3.126305 9.203635 -6.268377 -9.685067 -0.103119 0.000002 -0.000000 0.000000 -0.000000 0.000000 -87.001905 12.573025 -14.262423 80.188484 0.802176 1.198170 10.564307 -0.515255 10.469227 -0.191627 -0.000003 -0.000000 0.000000 0.000001 -0.000000 
0.523234 49.414215 16.065388 -1.483366 0.062688 1.113325 9.796504 0.024480 -1.444980 1.248921 0.222378 -0.387395 0.000000 0.000000 0.000000 1.248842 0.248826 -0.340489 -0.681240 -1.208183 0.490105 -10.819938 -4.081877 -4.732362 -0.000000 -0.000000 0.000000 0.832467 -15.979339 -7.489319 0.000000 0.000000 0.000000 4.238275 -21.173440 -54.038879 -0.000017 -61.236689 -0.000017 28.124124 2.741981 40.412320 8.575144 2.451600 18.424799 2.389383 19.058786 -24.763346 -6.191568 28.940061 5.645580 0.000000 0.000001 -0.000000 -0.169348 2.597098 -25.157451 0.446793 2.245833 -22.500631 0.057943 0.822814 -8.056405 0.000002 0.000000 -0.000001 1.178812 7.156441 -15.401462 0.395496 2.117832 -21.153212 0.208427 1.550222 -15.312951 0.000001 0.000001 -0.000004 1.664855 9.493843 -13.712409 0.284002 1.803621 -17.895364 0.209643 1.554697 -15.358478 0.000002 -0.000001 0.000002 1.808327 10.428092 -13.976048 0.237086 1.651355 -16.339443 0.076232 0.942994 -9.242928 0.000002 -0.000000 0.000000 3.026186 -3.737179 9.731912 0.000000 0.000000 0.000000 -3.408157 37.697593 59.557549 0.000016 54.333373 -0.000012 28.528898 8.185321 -32.859869 -8.343275 -0.556698 -12.373141 3.258126 -24.179426 32.324359 -7.008220 -35.723621 -11.060077 0.000000 -0.000001 0.000003 2.867310 1.145882 11.945001 0.489056 -2.079365 26.467787 0.043224 -0.633681 7.803133 -0.000002 -0.000001 -0.000001 0.089394 -3.656418 1.770176 0.685259 -2.433666 31.448052 0.016549 -0.392581 4.824637 0.000000 -0.000001 -0.000001 0.423062 -7.475550 4.075720 0.151884 -1.180835 14.656898 0.070705 -0.809313 9.985965 0.000002 0.000001 0.000000 -11.227116 -10.400875 8.075990 0.048111 -0.668453 8.234246 0.028800 -0.517637 6.367707 0.000000 -0.000001 0.000001 -84.442284 -10.919967 18.523258 79.362734 -0.715925 -3.114059 9.207633 -6.270076 -9.630010 -0.103119 0.000003 -0.000000 -0.000000 -0.000000 -0.000000 -86.472906 12.501402 -14.335223 80.134013 0.862494 1.175242 10.582688 -0.513591 10.346533 -0.191627 -0.000003 -0.000000 -0.000000 -0.000001 0.000000 
